<?xml version="1.0" encoding="UTF-8" standalone="no"?>
<!-- Created with Inkscape (http://www.inkscape.org/) -->

<svg
   xmlns:dc="http://purl.org/dc/elements/1.1/"
   xmlns:cc="http://creativecommons.org/ns#"
   xmlns:rdf="http://www.w3.org/1999/02/22-rdf-syntax-ns#"
   xmlns:svg="http://www.w3.org/2000/svg"
   xmlns="http://www.w3.org/2000/svg"
   xmlns:sodipodi="http://sodipodi.sourceforge.net/DTD/sodipodi-0.dtd"
   xmlns:inkscape="http://www.inkscape.org/namespaces/inkscape"
   width="744.09448819"
   height="1052.3622047"
   id="svg2"
   version="1.1"
   inkscape:version="0.47pre3 r22311"
   sodipodi:docname="example.svg">
  <defs
     id="defs4">
    <inkscape:perspective
       sodipodi:type="inkscape:persp3d"
       inkscape:vp_x="0 : 526.18109 : 1"
       inkscape:vp_y="0 : 1000 : 0"
       inkscape:vp_z="744.09448 : 526.18109 : 1"
       inkscape:persp3d-origin="372.04724 : 350.78739 : 1"
       id="perspective10" />
  </defs>
  <sodipodi:namedview
     id="base"
     pagecolor="#ffffff"
     bordercolor="#666666"
     borderopacity="1.0"
     inkscape:pageopacity="0.0"
     inkscape:pageshadow="2"
     inkscape:zoom="1"
     inkscape:cx="408.4493"
     inkscape:cy="756.49214"
     inkscape:document-units="px"
     inkscape:current-layer="layer1"
     showgrid="false"
     inkscape:window-width="1440"
     inkscape:window-height="852"
     inkscape:window-x="0"
     inkscape:window-y="0"
     inkscape:window-maximized="0" />
  <metadata
     id="metadata7">
    <rdf:RDF>
      <cc:Work
         rdf:about="">
        <dc:format>image/svg+xml</dc:format>
        <dc:type
           rdf:resource="http://purl.org/dc/dcmitype/StillImage" />
        <dc:title></dc:title>
      </cc:Work>
    </rdf:RDF>
  </metadata>
  <g
     inkscape:label="Layer 1"
     inkscape:groupmode="layer"
     id="layer1">
    <path
       style="fill:#ff0000;fill-rule:evenodd;stroke:none;stroke-width:1.45681846000000004px;stroke-linecap:butt;stroke-linejoin:miter;stroke-opacity:1;opacity:0.58196721"
       d="M 441.5625 319.8125 C 436.52003 317.69702 431.36504 315.79579 426.09375 314.15625 C 420.66095 312.46647 415.11597 311.03059 409.46875 309.875 C 403.82153 308.71941 398.08256 307.84233 392.25 307.25 C 386.41744 306.65767 380.48884 306.375 374.5 306.375 C 368.51116 306.375 362.58256 306.65767 356.75 307.25 C 350.91744 307.84233 345.17847 308.71941 339.53125 309.875 C 333.88403 311.03059 328.33905 312.46647 322.90625 314.15625 C 317.47345 315.84603 312.15806 317.80511 306.96875 320 C 301.77944 322.19489 296.72926 324.64156 291.8125 327.3125 C 286.89574 329.98344 282.11513 332.88208 277.5 336 C 272.88487 339.11792 268.40943 342.43292 264.125 345.96875 C 259.84057 349.50458 255.73717 353.26283 251.8125 357.1875 C 247.88783 361.11217 244.16083 365.21557 240.625 369.5 C 237.08917 373.78443 233.74292 378.22862 230.625 382.84375 C 227.50708 387.45888 224.60844 392.23949 221.9375 397.15625 C 219.26656 402.07301 216.81989 407.15444 214.625 412.34375 C 212.43011 417.53306 210.50228 422.84845 208.8125 428.28125 C 207.12272 433.71405 205.68684 439.25903 204.53125 444.90625 C 203.37566 450.55347 202.49858 456.29244 201.90625 462.125 C 201.31392 467.95756 201 473.88616 201 479.875 C 201 485.86384 201.31392 491.76119 201.90625 497.59375 C 202.49858 503.42631 203.37566 509.19653 204.53125 514.84375 C 205.68684 520.49097 207.12272 526.03595 208.8125 531.46875 C 210.50228 536.90155 212.43011 542.21694 214.625 547.40625 C 216.39512 551.59128 218.44968 555.61541 220.53125 559.625 L 427.5625 559.625 C 435.31848 559.625 441.5625 553.38098 441.5625 545.625 L 441.5625 319.8125 z "
       id="path2887" />
    <path
       style="fill:#ececec;fill-rule:evenodd;stroke:none;stroke-width:1.45681846000000004px;stroke-linecap:butt;stroke-linejoin:miter;stroke-opacity:1"
       d="M 275.9375 44 C 279.57803 47.68698 283.07418 51.500329 286.375 55.5 C 289.91083 59.784433 293.25708 64.22862 296.375 68.84375 C 299.49292 73.45888 302.39156 78.239493 305.0625 83.15625 C 307.73344 88.073007 310.18011 93.154437 312.375 98.34375 C 314.56989 103.53306 316.49772 108.84845 318.1875 114.28125 C 319.87728 119.71405 321.31316 125.25903 322.46875 130.90625 C 323.62434 136.55347 324.50142 142.29244 325.09375 148.125 C 325.68608 153.95756 326 159.88616 326 165.875 C 326 171.86384 325.68608 177.76119 325.09375 183.59375 C 324.50142 189.42631 323.62434 195.19653 322.46875 200.84375 C 321.31316 206.49097 319.87728 212.03595 318.1875 217.46875 C 316.49772 222.90155 314.56989 228.21694 312.375 233.40625 C 310.18011 238.59556 307.73344 243.64574 305.0625 248.5625 C 302.39156 253.47926 299.49292 258.25987 296.375 262.875 C 293.25708 267.49013 289.91083 271.93432 286.375 276.21875 C 282.83917 280.50318 279.11217 284.60658 275.1875 288.53125 C 271.26283 292.45592 267.15943 296.21417 262.875 299.75 C 258.59057 303.28583 254.11513 306.60083 249.5 309.71875 C 244.88487 312.83667 240.10426 315.73531 235.1875 318.40625 C 230.27074 321.07719 225.22056 323.52386 220.03125 325.71875 C 214.84194 327.91364 209.52655 329.87272 204.09375 331.5625 C 198.66095 333.25228 193.11597 334.68816 187.46875 335.84375 C 181.82153 336.99934 176.08256 337.87642 170.25 338.46875 C 164.41744 339.06108 158.48884 339.375 152.5 339.375 C 146.51116 339.375 140.58256 339.06108 134.75 338.46875 C 128.91744 337.87642 123.17847 336.99934 117.53125 335.84375 C 111.88403 334.68816 106.33905 333.25228 100.90625 331.5625 C 95.47345 329.87272 90.158063 327.91364 84.96875 325.71875 C 79.779437 323.52386 74.729257 321.07719 69.8125 318.40625 C 66.003764 316.33722 62.348453 314.02671 58.71875 311.6875 L 58.71875 545.625 C 58.71875 553.38098 64.962767 559.625 72.71875 559.625 L 220.53125 559.625 C 218.44968 555.61541 216.39512 551.59128 214.625 547.40625 C 212.43011 542.21694 210.50228 536.90155 208.8125 531.46875 C 207.12272 526.03595 205.68684 520.49097 204.53125 514.84375 C 203.37566 509.19653 202.49858 503.42631 201.90625 497.59375 C 201.31392 491.76119 201 485.86384 201 479.875 C 201 473.88616 201.31392 467.95756 201.90625 462.125 C 202.49858 456.29244 203.37566 450.55347 204.53125 444.90625 C 205.68684 439.25903 207.12272 433.71405 208.8125 428.28125 C 210.50228 422.84845 212.43011 417.53306 214.625 412.34375 C 216.81989 407.15444 219.26656 402.07301 221.9375 397.15625 C 224.60844 392.23949 227.50708 387.45888 230.625 382.84375 C 233.74292 378.22862 237.08917 373.78443 240.625 369.5 C 244.16083 365.21557 247.88783 361.11217 251.8125 357.1875 C 255.73717 353.26283 259.84057 349.50458 264.125 345.96875 C 268.40943 342.43292 272.88487 339.11792 277.5 336 C 282.11513 332.88208 286.89574 329.98344 291.8125 327.3125 C 296.72926 324.64156 301.77944 322.19489 306.96875 320 C 312.15806 317.80511 317.47345 315.84603 322.90625 314.15625 C 328.33905 312.46647 333.88403 311.03059 339.53125 309.875 C 345.17847 308.71941 350.91744 307.84233 356.75 307.25 C 362.58256 306.65767 368.51116 306.375 374.5 306.375 C 380.48884 306.375 386.41744 306.65767 392.25 307.25 C 398.08256 307.84233 403.82153 308.71941 409.46875 309.875 C 415.11597 311.03059 420.66095 312.46647 426.09375 314.15625 C 431.36504 315.79579 436.52003 317.69702 441.5625 319.8125 L 441.5625 58 C 441.5625 50.244017 435.31848 44 427.5625 44 L 275.9375 44 z "
       id="path2884" />
    <path
       style="fill:#ffff00;fill-rule:evenodd;stroke:none;opacity:0.5"
       d="m 58.71875,311.6875 c 3.629703,2.33921 7.285014,4.64972 11.09375,6.71875 4.916757,2.67094 9.966937,5.11761 15.15625,7.3125 5.189313,2.19489 10.5047,4.15397 15.9375,5.84375 5.4328,1.68978 10.97778,3.12566 16.625,4.28125 5.64722,1.15559 11.38619,2.03267 17.21875,2.625 5.83256,0.59233 11.76116,0.90625 17.75,0.90625 5.98884,0 11.91744,-0.31392 17.75,-0.90625 5.83256,-0.59233 11.57153,-1.46941 17.21875,-2.625 5.64722,-1.15559 11.1922,-2.59147 16.625,-4.28125 5.4328,-1.68978 10.74819,-3.64886 15.9375,-5.84375 5.18931,-2.19489 10.23949,-4.64156 15.15625,-7.3125 4.91676,-2.67094 9.69737,-5.56958 14.3125,-8.6875 4.61513,-3.11792 9.09057,-6.43292 13.375,-9.96875 4.28443,-3.53583 8.38783,-7.29408 12.3125,-11.21875 3.92467,-3.92467 7.65167,-8.02807 11.1875,-12.3125 3.53583,-4.28443 6.88208,-8.72862 10,-13.34375 3.11792,-4.61513 6.01656,-9.39574 8.6875,-14.3125 2.67094,-4.91676 5.11761,-9.96694 7.3125,-15.15625 2.19489,-5.18931 4.12272,-10.5047 5.8125,-15.9375 1.68978,-5.4328 3.12566,-10.97778 4.28125,-16.625 1.15559,-5.64722 2.03267,-11.41744 2.625,-17.25 C 325.68608,177.76119 326,171.86384 326,165.875 c 0,-5.98884 -0.31392,-11.91744 -0.90625,-17.75 -0.59233,-5.83256 -1.46941,-11.57153 -2.625,-17.21875 -1.15559,-5.64722 -2.59147,-11.1922 -4.28125,-16.625 -1.68978,-5.4328 -3.61761,-10.74819 -5.8125,-15.9375 -2.19489,-5.189313 -4.64156,-10.270743 -7.3125,-15.1875 -2.67094,-4.916757 -5.56958,-9.69737 -8.6875,-14.3125 -3.11792,-4.61513 -6.46417,-9.059317 -10,-13.34375 -3.30082,-3.999671 -6.79697,-7.81302 -10.4375,-11.5 L 72.71875,44 c -7.755983,0 -14,6.244017 -14,14 l 0,253.6875 z"
       id="rect2816" />
    <text
       xml:space="preserve"
       style="font-size:48px;font-style:normal;font-weight:normal;fill:#4d4d4d;fill-opacity:1;stroke:none;font-family:Abadi MT Condensed Extra Bold;-inkscape-font-specification:'Abadi MT Condensed Extra Bold, Condensed';font-stretch:condensed;font-variant:normal;text-anchor:start;text-align:start;writing-mode:lr;line-height:125%"
       x="73"
       y="89.362183"
       id="text3697"
       sodipodi:linespacing="125%"><tspan
         sodipodi:role="line"
         id="tspan3699"
         x="73"
         y="89.362183">Connect4</tspan></text>
    <rect
       style="fill:#999999;fill-opacity:1;stroke:none"
       id="rect3701"
       width="350"
       height="350"
       x="75"
       y="164.36214"
       rx="13.999969"
       ry="13.999969" />
    <text
       sodipodi:linespacing="125%"
       id="text3729"
       y="549.36218"
       x="122"
       style="font-size:36px;font-style:normal;font-variant:normal;font-weight:normal;font-stretch:condensed;text-align:start;line-height:125%;writing-mode:lr-tb;text-anchor:start;fill:#4d4d4d;fill-opacity:1;stroke:none;font-family:Abadi MT Condensed Extra Bold;-inkscape-font-specification:'Abadi MT Condensed Extra Bold, Condensed'"
       xml:space="preserve"><tspan
         sodipodi:role="line"
         id="tspan3733"
         x="122"
         y="549.36218">Score:</tspan></text>
    <path
       sodipodi:type="arc"
       style="fill:#ff0000;fill-opacity:1;stroke:#000000;stroke-width:1;stroke-miterlimit:4;stroke-opacity:1;stroke-dasharray:none"
       id="path3737"
       sodipodi:cx="534.5"
       sodipodi:cy="204.86218"
       sodipodi:rx="14.5"
       sodipodi:ry="14.5"
       d="m 549,204.86218 a 14.5,14.5 0 1 1 -29,0 14.5,14.5 0 1 1 29,0 z"
       transform="translate(-430,283)" />
    <path
       d="m 549,204.86218 a 14.5,14.5 0 1 1 -29,0 14.5,14.5 0 1 1 29,0 z"
       sodipodi:ry="14.5"
       sodipodi:rx="14.5"
       sodipodi:cy="204.86218"
       sodipodi:cx="534.5"
       id="path3739"
       style="fill:#ffff00;fill-opacity:1;stroke:#000000;stroke-width:1;stroke-miterlimit:4;stroke-opacity:1;stroke-dasharray:none"
       sodipodi:type="arc"
       transform="translate(-389,284)" />
    <path
       transform="translate(-137,286)"
       sodipodi:type="arc"
       style="fill:#ffff00;fill-opacity:1;stroke:#000000;stroke-width:1;stroke-miterlimit:4;stroke-opacity:1;stroke-dasharray:none"
       id="path3741"
       sodipodi:cx="534.5"
       sodipodi:cy="204.86218"
       sodipodi:rx="14.5"
       sodipodi:ry="14.5"
       d="m 549,204.86218 a 14.5,14.5 0 1 1 -29,0 14.5,14.5 0 1 1 29,0 z" />
    <path
       d="m 549,204.86218 a 14.5,14.5 0 1 1 -29,0 14.5,14.5 0 1 1 29,0 z"
       sodipodi:ry="14.5"
       sodipodi:rx="14.5"
       sodipodi:cy="204.86218"
       sodipodi:cx="534.5"
       id="path3743"
       style="fill:#ffff00;fill-opacity:1;stroke:#000000;stroke-width:1;stroke-miterlimit:4;stroke-opacity:1;stroke-dasharray:none"
       sodipodi:type="arc"
       transform="translate(-261,285)" />
    <path
       transform="translate(-304,284)"
       sodipodi:type="arc"
       style="fill:#ffff00;fill-opacity:1;stroke:#000000;stroke-width:1;stroke-miterlimit:4;stroke-opacity:1;stroke-dasharray:none"
       id="path3745"
       sodipodi:cx="534.5"
       sodipodi:cy="204.86218"
       sodipodi:rx="14.5"
       sodipodi:ry="14.5"
       d="m 549,204.86218 a 14.5,14.5 0 1 1 -29,0 14.5,14.5 0 1 1 29,0 z" />
    <path
       d="m 549,204.86218 a 14.5,14.5 0 1 1 -29,0 14.5,14.5 0 1 1 29,0 z"
       sodipodi:ry="14.5"
       sodipodi:rx="14.5"
       sodipodi:cy="204.86218"
       sodipodi:cx="534.5"
       id="path3747"
       style="fill:#ffff00;fill-opacity:1;stroke:#000000;stroke-width:1;stroke-miterlimit:4;stroke-opacity:1;stroke-dasharray:none"
       sodipodi:type="arc"
       transform="translate(-347,284)" />
    <path
       transform="translate(-261,244)"
       d="m 549,204.86218 a 14.5,14.5 0 1 1 -29,0 14.5,14.5 0 1 1 29,0 z"
       sodipodi:ry="14.5"
       sodipodi:rx="14.5"
       sodipodi:cy="204.86218"
       sodipodi:cx="534.5"
       id="path3749"
       style="fill:#ff0000;fill-opacity:1;stroke:#000000;stroke-width:1;stroke-miterlimit:4;stroke-opacity:1;stroke-dasharray:none"
       sodipodi:type="arc" />
    <path
       sodipodi:type="arc"
       style="fill:#ff0000;fill-opacity:1;stroke:#000000;stroke-width:1;stroke-miterlimit:4;stroke-opacity:1;stroke-dasharray:none"
       id="path3751"
       sodipodi:cx="534.5"
       sodipodi:cy="204.86218"
       sodipodi:rx="14.5"
       sodipodi:ry="14.5"
       d="m 549,204.86218 a 14.5,14.5 0 1 1 -29,0 14.5,14.5 0 1 1 29,0 z"
       transform="translate(-388,241)" />
    <path
       transform="translate(-177,285)"
       d="m 549,204.86218 a 14.5,14.5 0 1 1 -29,0 14.5,14.5 0 1 1 29,0 z"
       sodipodi:ry="14.5"
       sodipodi:rx="14.5"
       sodipodi:cy="204.86218"
       sodipodi:cx="534.5"
       id="path3753"
       style="fill:#ff0000;fill-opacity:1;stroke:#000000;stroke-width:1;stroke-miterlimit:4;stroke-opacity:1;stroke-dasharray:none"
       sodipodi:type="arc" />
    <path
       sodipodi:type="arc"
       style="fill:#ff0000;fill-opacity:1;stroke:#000000;stroke-width:1;stroke-miterlimit:4;stroke-opacity:1;stroke-dasharray:none"
       id="path3755"
       sodipodi:cx="534.5"
       sodipodi:cy="204.86218"
       sodipodi:rx="14.5"
       sodipodi:ry="14.5"
       d="m 549,204.86218 a 14.5,14.5 0 1 1 -29,0 14.5,14.5 0 1 1 29,0 z"
       transform="translate(-218,285)" />
    <path
       sodipodi:type="arc"
       style="fill:#ff0000;fill-opacity:1;stroke:#000000;stroke-width:1;stroke-miterlimit:4;stroke-opacity:1;stroke-dasharray:none"
       id="path3757"
       sodipodi:cx="534.5"
       sodipodi:cy="204.86218"
       sodipodi:rx="14.5"
       sodipodi:ry="14.5"
       d="m 549,204.86218 a 14.5,14.5 0 1 1 -29,0 14.5,14.5 0 1 1 29,0 z"
       transform="translate(-261,120)" />
    <path
       transform="translate(-261,162)"
       d="m 549,204.86218 a 14.5,14.5 0 1 1 -29,0 14.5,14.5 0 1 1 29,0 z"
       sodipodi:ry="14.5"
       sodipodi:rx="14.5"
       sodipodi:cy="204.86218"
       sodipodi:cx="534.5"
       id="path3759"
       style="fill:#ff0000;fill-opacity:1;stroke:#000000;stroke-width:1;stroke-miterlimit:4;stroke-opacity:1;stroke-dasharray:none"
       sodipodi:type="arc" />
    <path
       sodipodi:type="arc"
       style="fill:#ff0000;fill-opacity:1;stroke:#000000;stroke-width:1;stroke-miterlimit:4;stroke-opacity:1;stroke-dasharray:none"
       id="path3761"
       sodipodi:cx="534.5"
       sodipodi:cy="204.86218"
       sodipodi:rx="14.5"
       sodipodi:ry="14.5"
       d="m 549,204.86218 a 14.5,14.5 0 1 1 -29,0 14.5,14.5 0 1 1 29,0 z"
       transform="translate(-261,203)" />
    <path
       d="m 549,204.86218 a 14.5,14.5 0 1 1 -29,0 14.5,14.5 0 1 1 29,0 z"
       sodipodi:ry="14.5"
       sodipodi:rx="14.5"
       sodipodi:cy="204.86218"
       sodipodi:cx="534.5"
       id="path3763"
       style="fill:#ffff00;fill-opacity:1;stroke:#000000;stroke-width:1;stroke-miterlimit:4;stroke-opacity:1;stroke-dasharray:none"
       sodipodi:type="arc"
       transform="translate(-260,77)" />
    <path
       d="m 549,204.86218 a 14.5,14.5 0 1 1 -29,0 14.5,14.5 0 1 1 29,0 z"
       sodipodi:ry="14.5"
       sodipodi:rx="14.5"
       sodipodi:cy="204.86218"
       sodipodi:cx="534.5"
       id="path3765"
       style="fill:#ffff00;fill-opacity:1;stroke:#000000;stroke-width:1;stroke-miterlimit:4;stroke-opacity:1;stroke-dasharray:none"
       sodipodi:type="arc"
       transform="translate(-261,33)" />
    <path
       transform="translate(-260,-11)"
       d="m 549,204.86218 a 14.5,14.5 0 1 1 -29,0 14.5,14.5 0 1 1 29,0 z"
       sodipodi:ry="14.5"
       sodipodi:rx="14.5"
       sodipodi:cy="204.86218"
       sodipodi:cx="534.5"
       id="path3767"
       style="fill:#ff0000;fill-opacity:1;stroke:#000000;stroke-width:1;stroke-miterlimit:4;stroke-opacity:1;stroke-dasharray:none"
       sodipodi:type="arc" />
    <path
       style="fill:#ff0000;fill-opacity:1;stroke:#000000;stroke-width:1;stroke-miterlimit:4;stroke-opacity:1;stroke-dasharray:none"
       d="m 131.40625,119.0625 0,20.3125 -3.125,0 9.1875,12.71875 8.5,-12.71875 -3.5625,0 0,-20.3125 -11,0 z"
       id="rect3773" />
  </g>
</svg>
